<mxfile host="app.diagrams.net" modified="2020-09-27T14:25:13.800Z" agent="5.0 (Windows)" etag="07kTT8iRN-W1u3SbZPJQ" version="13.7.3" type="github">
  <diagram id="ibJbVLS4hWbRgZfAMbUb" name="Page-1">
    <mxGraphModel dx="868" dy="479" grid="1" gridSize="10" guides="1" tooltips="1" connect="1" arrows="1" fold="1" page="1" pageScale="1" pageWidth="850" pageHeight="1100" math="0" shadow="0">
      <root>
        <mxCell id="0" />
        <mxCell id="1" parent="0" />
        <mxCell id="TFYRqIjvRKhbQdXWvnds-1" value="" style="rounded=0;whiteSpace=wrap;html=1;" vertex="1" parent="1">
          <mxGeometry x="320" y="60" width="130" height="330" as="geometry" />
        </mxCell>
        <mxCell id="TFYRqIjvRKhbQdXWvnds-2" value="&lt;i&gt;ATM&lt;/i&gt;" style="text;html=1;strokeColor=none;fillColor=none;align=center;verticalAlign=middle;whiteSpace=wrap;rounded=0;" vertex="1" parent="1">
          <mxGeometry x="320" y="60" width="40" height="20" as="geometry" />
        </mxCell>
        <mxCell id="TFYRqIjvRKhbQdXWvnds-3" value="" style="rounded=0;whiteSpace=wrap;html=1;" vertex="1" parent="1">
          <mxGeometry x="325" y="430" width="125" height="430" as="geometry" />
        </mxCell>
        <mxCell id="TFYRqIjvRKhbQdXWvnds-6" value="&lt;i&gt;FMS&lt;/i&gt;" style="text;html=1;strokeColor=none;fillColor=none;align=center;verticalAlign=middle;whiteSpace=wrap;rounded=0;" vertex="1" parent="1">
          <mxGeometry x="325" y="430" width="40" height="20" as="geometry" />
        </mxCell>
      </root>
    </mxGraphModel>
  </diagram>
</mxfile>
